<?xml version="1.0" ?><svg height="58px" version="1.1" viewBox="0 0 49 58" width="49px" xmlns="http://www.w3.org/2000/svg" xmlns:xlink="http://www.w3.org/1999/xlink"><title/><desc/><defs/><g fill="none" fill-rule="evenodd" id="Page-1" stroke="none" stroke-width="1"><g id="011---Santa"><path d="M7,26.34 L5.80005,34.94 L5.80005,34.97 C5.62411297,34.9902506 5.44714843,35.0002675 5.27005,35 C3.45250112,34.9943139 1.81682107,33.8957987 1.12393997,32.2154915 C0.431058863,30.5351844 0.817031801,28.6030328 2.1023014,27.3178876 C3.387571,26.0327423 5.31975992,25.6469563 7,26.34 L7,26.34 Z" fill="#F5A585" id="Shape"/><path d="M47.69,30.5 C47.6921334,32.966699 45.7065689,34.9745733 43.24,35 L42,26.16 C42.3871613,26.0509347 42.7877805,25.9970699 43.19,26 C44.3839625,25.9984049 45.5294822,26.4719984 46.3737419,27.3162581 C47.2180016,28.1605178 47.6915951,29.3060375 47.69,30.5 L47.69,30.5 Z" fill="#F5A585" id="Shape"/><path d="M44,41.06 C44.0058761,42.3253581 43.8649339,43.587126 43.58,44.82 C42.9323819,47.8198269 41.0957116,50.4286926 38.49,52.05 C37.8813639,52.4201459 37.2424029,52.7379537 36.58,53 C26.58,57 24.58,58 24.58,58 L24,58 C24,58 22,57 12,53 C11.3375961,52.7379558 10.698635,52.4201479 10.09,52.05 C7.48428279,50.4286985 5.64761061,47.8198302 5,44.82 C4.71506606,43.587126 4.5741239,42.3253581 4.58,41.06 C4.60828379,39.6322107 4.71176049,38.2069026 4.89,36.79 C4.9,36.58 4.92,36.37 4.94,36.16 C4.97,35.76 5,35.36 5.03,34.97 L5.03,34.94 L6.23,26.34 C6.27,26.13 6.33,25.92 6.38,25.71 C6.76316146,24.0903622 7.30581059,22.5126601 8,21 L8.06,20.84 C8.08923,20.85109 7.42315,19.99015 8,20 C12.67148,20.08 35.09993,19.86109 39,20 C39.3948,20.01406 38.61,21 38.61,21 C39.2339556,22.2407342 40.3119461,23.193377 41.62,23.66 C41.84,24.34 42.02,25.03 42.2,25.71 C42.24,25.86 42.28,26.01005 42.31,26.16 L43.55,34.96 L43.55,35 C43.58,35.38 43.61,35.77 43.64,36.16 C43.66,36.41 43.68,36.65 43.7,36.9 C43.83,38.28 44,39.67 44,41.06 Z" fill="#EBECED" id="Shape"/><path d="M39.94,37.01 C38,39.89 30.51,38.14 29.98,38.01 L29.82,38.05 C29.5086497,37.2700635 28.9547087,36.6109438 28.24,36.17 L19.76,36.17 C19.0413477,36.6180336 18.4843495,37.2836289 18.17,38.07 L18,38 C18,38 10.07,39.98 8.03,37.04 C8.3,32.85 9.69,25.21 16,21 L31.97,21 C38.26,25.2 39.67,32.81 39.94,37.01 Z" fill="#FEDEBB" id="Shape"/><path d="M45.93,13.57 C45.9785239,13.215429 46.0019156,12.8578707 46,12.5 C46,5.6 37.72,0 27.5,0 C18.98,0 11.81,3.89 9.66,9.18 L45.93,13.57 Z" fill="#ED634C" id="Shape"/><path d="M41.93,13.23 L38.61,21 L9,21 C8.6795729,21.0039024 8.36109175,20.9496928 8.06,20.84 C6.82954002,20.4410186 5.99720396,19.2935262 6,18 L6,14 C5.99676875,12.6729296 6.52251526,11.3992818 7.46089851,10.4608985 C8.39928177,9.52251526 9.67292961,8.99676875 11,9 L37,9 C39.4636938,8.99567805 41.5599109,10.7942579 41.93,13.23 L41.93,13.23 Z" fill="#DADCDA" id="Shape"/><path d="M39.99,38 L39.99,37.94" id="Shape" stroke="#000000" stroke-linecap="round" stroke-linejoin="round"/><path d="M30,39 C29.9284565,40.1798828 29.2666194,41.2440867 28.24,41.83 C25.6285859,43.3900605 22.3714141,43.3900605 19.76,41.83 C18.7333806,41.2440867 18.0715435,40.1798828 18,39 C18.0012369,38.6823873 18.0587949,38.367511 18.17,38.07 C18.4843495,37.2836289 19.0413477,36.6180336 19.76,36.17 L28.24,36.17 C28.9547087,36.6109438 29.5086497,37.2700635 29.82,38.05 C29.9401124,38.3522674 30.0012133,38.6747446 30,39 Z" fill="#F58D6D" id="Shape"/><path d="M28,46 C28,48.209139 26.209139,50 24,50 C21.790861,50 20,48.209139 20,46 L28,46 Z" fill="#F58D6D" id="Shape"/><path d="M24,51 C21.2399195,50.9967599 19.0032401,48.7600805 19,46 C19,45.4477153 19.4477153,45 20,45 L28,45 C28.5522847,45 29,45.4477153 29,46 C28.9967599,48.7600805 26.7600805,50.9967599 24,51 L24,51 Z M21.17139,47 C21.5952615,48.1986522 22.7286094,48.9999973 24,48.9999973 C25.2713906,48.9999973 26.4047385,48.1986522 26.82861,47 L21.17139,47 Z" fill="#D8625E" fill-rule="nonzero" id="Shape"/><circle cx="17" cy="32" fill="#FFFFFF" fill-rule="nonzero" id="Oval" r="4"/><circle cx="31" cy="32" fill="#FFFFFF" fill-rule="nonzero" id="Oval" r="4"/><path d="M18,33.5 C17.1715729,33.5 16.5,32.8284271 16.5,32 C16.5,31.1715729 17.1715729,30.5 18,30.5 C18.8284271,30.5 19.5,31.1715729 19.5,32 C19.4990961,32.8280524 18.8280524,33.4990961 18,33.5 Z M18,31.5 C17.7238576,31.5 17.5,31.7238576 17.5,32 C17.5,32.2761424 17.7238576,32.5 18,32.5 C18.2761424,32.5 18.5,32.2761424 18.5,32 C18.4998125,31.7239353 18.2760647,31.5001875 18,31.5 Z" fill="#3A3E48" fill-rule="nonzero" id="Shape"/><path d="M30,33.5 C29.1715729,33.5 28.5,32.8284271 28.5,32 C28.5,31.1715729 29.1715729,30.5 30,30.5 C30.8284271,30.5 31.5,31.1715729 31.5,32 C31.4990961,32.8280524 30.8280524,33.4990961 30,33.5 Z M30,31.5 C29.7238576,31.5 29.5,31.7238576 29.5,32 C29.5,32.2761424 29.7238576,32.5 30,32.5 C30.2761424,32.5 30.5,32.2761424 30.5,32 C30.4998125,31.7239353 30.2760647,31.5001875 30,31.5 Z" fill="#3A3E48" fill-rule="nonzero" id="Shape"/><path d="M14.00049,45.00049 C13.9071568,45.0004225 13.8142936,44.9872746 13.72461,44.96143 C8.28661,43.40283 7.16797,40.10596 6.98486,38.27979 C6.92984692,37.7302004 7.3307804,37.2400731 7.88037,37.18506 C8.4299596,37.1300469 8.92008692,37.5309804 8.9751,38.08057 C9.10742,39.40283 9.97217,41.80518 14.27539,43.03857 C14.7546187,43.1759652 15.0595319,43.6452559 14.990354,44.1389684 C14.921176,44.6326809 14.4990253,45.000097 14.00049,45.00049 L14.00049,45.00049 Z" fill="#DADCDA" fill-rule="nonzero" id="Shape"/><path d="M33.99951,45.00049 C33.5009747,45.000097 33.078824,44.6326809 33.009646,44.1389684 C32.9404681,43.6452559 33.2453813,43.1759652 33.72461,43.03857 C38.02783,41.80518 38.89261,39.40283 39.0249,38.08057 C39.0604872,37.7250479 39.28304,37.4155174 39.6087248,37.2685758 C39.9344096,37.1216342 40.3137472,37.1596053 40.6038448,37.3681858 C40.8939424,37.5767663 41.0507272,37.9242679 41.01514,38.27979 C40.83203,40.10596 39.71338,43.40279 34.27539,44.96143 C34.1857064,44.9872746 34.0928432,45.0004225 33.99951,45.00049 L33.99951,45.00049 Z" fill="#DADCDA" fill-rule="nonzero" id="Shape"/><path d="M29,47 L28,47 C27.4477153,47 27,46.5522847 27,46 C27,45.4477153 27.4477153,45 28,45 L29,45 C29.5522847,45 30,45.4477153 30,46 C30,46.5522847 29.5522847,47 29,47 Z" fill="#D8625E" fill-rule="nonzero" id="Shape"/><path d="M20,47 L19,47 C18.4477153,47 18,46.5522847 18,46 C18,45.4477153 18.4477153,45 19,45 L20,45 C20.5522847,45 21,45.4477153 21,46 C21,46.5522847 20.5522847,47 20,47 Z" fill="#D8625E" fill-rule="nonzero" id="Shape"/><path d="M14,27 C13.5956041,26.9999137 13.2310659,26.7562725 13.076322,26.3826546 C12.9215781,26.0090366 13.0070921,25.5789943 13.293,25.293 C14.5181838,23.9644299 16.1986352,23.1458034 18,23 C18.3572656,22.9982548 18.6883237,23.187241 18.8684679,23.4957695 C19.0486121,23.8042979 19.0504743,24.1854958 18.8733529,24.4957695 C18.6962315,24.8060432 18.3670356,24.9982548 18.00977,25 C16.7378489,25.148276 15.5636118,25.7551674 14.707,26.707 C14.5197098,26.8948521 14.2652658,27.0003006 14,27 Z" fill="#DADCDA" fill-rule="nonzero" id="Shape"/><path d="M34,27 C33.7347342,27.0003006 33.4802902,26.8948521 33.293,26.707 C32.4364287,25.7543281 31.2614055,25.1472988 29.98877,25 C29.4399938,24.9878173 29.0024539,24.5376709 29.00586,23.98877 C29.0093812,23.4420575 29.4532765,23.00056 30,23 C31.8013648,23.1458034 33.4818162,23.9644299 34.707,25.293 C34.9929079,25.5789943 35.0784219,26.0090366 34.923678,26.3826546 C34.7689341,26.7562725 34.4043959,26.9999137 34,27 Z" fill="#DADCDA" fill-rule="nonzero" id="Shape"/><path d="M49,18.5 C49.0008204,19.958942 48.4216212,21.3583652 47.3899932,22.3899932 C46.3583652,23.4216212 44.958942,24.0008204 43.5,24 C40.4677324,23.987246 38.012754,21.5322676 38,18.5 C38,15.4624339 40.4624339,13 43.5,13 C46.5375661,13 49,15.4624339 49,18.5 L49,18.5 Z" fill="#F0F3F4" id="Shape"/></g></g></svg>