<?xml version="1.0" ?><svg height="60px" version="1.1" viewBox="0 0 56 60" width="56px" xmlns="http://www.w3.org/2000/svg" xmlns:xlink="http://www.w3.org/1999/xlink"><title/><desc/><g fill="none" fill-rule="evenodd" id="Page-1" stroke="none" stroke-width="1"><g id="013---santa,-christmas,-emoji,-party,-excited"><path d="M29.789,-1.55679054e-05 C41.2032385,-0.0133619722 50.7935279,8.57625029 52.033,19.923 C52.4400031,23.5311119 52.6573022,27.1581034 52.684,30.789 L47.158,30.789 L29.789,-1.55679054e-05 Z" fill="#D94452" id="Path"/><path d="M49.58,26.9 C49.5397403,26.8983562 49.4994323,26.9017152 49.46,26.91 C49.3148216,26.9303861 49.171168,26.9604531 49.03,27 C48.8842276,27.0306801 48.740594,27.0707639 48.6,27.12 C48.4529791,27.1628438 48.3092671,27.216318 48.17,27.28 C48.14,27.29 48.12,27.3 48.09,27.31 C47.3749755,25.4374635 46.4022716,23.6738067 45.2,22.07 C46.3311572,21.8700857 47.1567152,20.8886825 47.16,19.74 L47.16,16.58 C47.1602654,15.9513556 46.9106549,15.3483826 46.4661362,14.9038638 C46.0216174,14.4593451 45.4186444,14.2097346 44.79,14.21 L43.95,14.21 C43.3721277,6.6532782 37.3754792,0.64389795 29.82,0.05 L29.79,0 L29.89,0 C30.21,0 30.53,0.01 30.86,0.02 C31.46,0.05 32.06,0.11 32.66,0.19 C39.6971104,1.30429067 45.0476549,7.10588656 45.59,14.21 L46.44,14.21 C47.0686444,14.2097346 47.6716174,14.4593451 48.1161362,14.9038638 C48.5606549,15.3483826 48.8102654,15.9513556 48.81,16.58 L48.81,19.74 C48.8096134,20.8877424 47.9815517,21.867897 46.85,22.06 C47.9636052,23.5497069 48.8811219,25.1763665 49.58,26.9 Z" fill="#C93A4C" id="Path"/><circle cx="50.316" cy="32.368" fill="#E4E8EB" id="Oval" r="5.526"/><path d="M51.689,35.282 C51.6883247,36.107464 51.6435944,36.9323038 51.555,37.753 C51.1489212,37.8483192 50.7331148,37.8959742 50.316,37.895 C50.0191672,37.8966727 49.7228434,37.8702212 49.431,37.816 C49.5265145,36.9747237 49.573925,36.1286806 49.573,35.282 C49.5787068,32.5548251 49.0754252,29.8505344 48.089,27.308 C48.7023334,27.0373864 49.3611527,26.8847248 50.031,26.858 C51.1283643,29.5308183 51.6916323,32.3926819 51.689,35.282 Z" fill="#D1D8DB" id="Path"/><path d="M49.571,35.285 C49.5794185,41.1575471 47.2486969,46.7916537 43.094,50.942 C43.094,50.9464183 43.0904183,50.95 43.086,50.95 C37.0754637,56.9575044 28.1579847,58.9970279 20.1336321,56.1994537 C12.1092795,53.4018794 6.39263125,46.2603796 5.41976351,37.8182125 C4.44689578,29.3760455 8.38931118,21.1214438 15.567,16.572 L15.575,16.564 C22.3994229,12.2472845 31.0319339,11.9852713 38.1055944,15.8801536 C45.1792548,19.7750359 49.5737137,27.2099286 49.575,35.285 L49.571,35.285 Z" fill="#FDCD56" id="Path"/><path d="M43.086,50.95 C37.0754637,56.9575044 28.1579847,58.9970279 20.1336321,56.1994537 C12.1092795,53.4018794 6.39263125,46.2603796 5.41976351,37.8182125 C4.44689578,29.3760455 8.38931118,21.1214438 15.567,16.572 C7.59615455,24.5582569 6.90073471,37.2592592 13.9519999,46.0680239 C21.0032651,54.8767886 33.5483799,56.9789699 43.086,50.95 Z" fill="#F5B945" id="Path"/><path d="M27.143,-6.93753547e-16 L28.6,-6.93753547e-16 C32.6847406,-0.00132686077 36.6025618,1.62074239 39.4909097,4.50909029 C42.3792576,7.3974382 44.0013269,11.3152594 44,15.4 L44.0000008,19.742 L10.842,19.742 L10.842,16.3 C10.842,11.9767979 12.5594538,7.83067762 15.616513,4.7738059 C18.6735723,1.71693418 22.819798,-0.00026522712 27.143,-6.93753547e-16 Z" fill="#EB5463" id="Path"/><path d="M29.845,0.055 C21.3502213,0.698931299 14.7870759,7.78085079 14.79,16.3 L14.79,19.734 L10.842,19.734 L10.842,16.3 C10.8419999,11.9764514 12.5597282,7.8300279 15.6172201,4.77309868 C18.6747119,1.71616946 22.8214515,-0.000795745144 27.145,8.8817842e-16 L28.605,8.8817842e-16 C29.024,8.8817842e-16 29.442,0.016 29.845,0.055 Z" fill="#D94452" id="Path"/><rect fill="#E4E8EB" height="7.895" id="Rectangle" rx="2.368" width="39.474" x="7.684" y="14.211"/><path d="M12.421,22.1050034 L10.053,22.105 C9.42455007,22.1060634 8.82151927,21.8569519 8.37704362,21.4126639 C7.93256798,20.9683759 7.68320191,20.3654503 7.684,19.737 L7.684,16.579 C7.68320191,15.9505497 7.93256798,15.3476241 8.37704362,14.9033361 C8.82151927,14.4590481 9.42455007,14.2099366 10.053,14.211 L12.421,14.2109966 C11.7927232,14.2102025 11.1899497,14.4594314 10.7456906,14.9036906 C10.3014314,15.3479497 10.0522025,15.9507232 10.053,16.579 L10.053,19.737 C10.0522025,20.3652768 10.3014314,20.9680503 10.7456906,21.4123094 C11.1899497,21.8565686 11.7927232,22.1057975 12.421,22.1050034 Z" fill="#CAD0D7" id="Path"/><path d="M52.684,40.658 C52.6854524,37.6299002 50.4015834,35.0888527 47.3904868,34.7684029 C44.3793903,34.4479531 41.6118809,36.4514179 40.976,39.412 C39.3867483,40.0977756 37.944986,41.0841909 36.73,42.317 C36.2458799,42.802271 35.7967552,43.3212374 35.386,43.87 C33.602,45.654 30.442,45.789 27.421,45.789 C24.4,45.789 21.24,45.654 19.457,43.87 C19.0456002,43.321465 18.5961598,42.80252 18.112,42.317 C16.8974685,41.0836474 15.4555937,40.0971551 13.866,39.412 C13.3343896,36.9440191 11.2961598,35.0847139 8.78985263,34.7814586 C6.28354546,34.4782033 3.86068692,35.7977308 2.75579931,38.0677006 C1.65091169,40.3376703 2.10713131,43.0585636 3.892,44.844 C3.286,47.365 4.566,50.865 7.37,53.669 C10.221,56.521 13.792,57.795 16.321,57.113 C18.462,58.833 22.63,60 27.421,60 C32.212,60 36.38,58.833 38.521,57.113 C41.05,57.795 44.621,56.521 47.472,53.669 C50.272,50.869 51.556,47.369 50.95,44.844 C52.0620935,43.7350642 52.6861675,42.228505 52.684,40.658 Z" fill="#F4F6F8" id="Path"/><path d="M49.053,50.589 C49.6385324,50.007141 50.171909,49.375053 50.647,48.7 C49.9874706,50.5804124 48.9014327,52.2825448 47.474,53.673 C44.624,56.523 41.047,57.802 38.521,57.115 C36.382,58.831 32.213,60 27.421,60 C22.629,60 18.461,58.831 16.321,57.11 C13.795,57.797 10.221,56.518 7.369,53.668 C4.569,50.868 3.287,47.368 3.895,44.842 C1.60245173,42.5603196 1.57435145,38.8582181 3.832,36.542 C3.76806675,36.8829373 3.73626072,37.2291208 3.737,37.576 C3.73393727,39.1466856 4.35941626,40.6533086 5.474,41.76 C4.866,44.286 6.145,47.784 8.947,50.586 C11.797,53.436 15.374,54.715 17.9,54.028 C20.04,55.75 24.208,56.918 29,56.918 C33.792,56.918 37.961,55.75 40.1,54.028 C42.626,54.718 46.2,53.439 49.053,50.589 Z" fill="#E4E8EB" id="Path"/><path d="M30,2.2 C30,2.2 36.2,5.16 37.852,8 C37.5497226,6.48773222 36.8266597,5.09152065 35.766,3.972 C33.9,1.842 30,2.2 30,2.2 Z" fill="#F77286" id="Path"/><path d="M31.42,41.24 C31.42,41.24 29.42,43.85 27.42,43.85 C25.42,43.85 23.42,41.24 23.42,41.24 L28.02,39.25 L31.42,41.24 Z" fill="#424852" id="Path"/><path d="M29.125,41.753 L32.617,42.732 C35.7804075,43.5772676 39.1288014,42.2939856 40.917,39.551 L41.08,39.314 C42.2147458,37.6128211 42.6542277,35.5413868 42.308,33.526 C41.3898,34.4127595 40.2752456,35.0702541 39.055,35.445 C37.85234,35.8194212 36.5756764,35.8901943 35.339,35.651 L31.098,34.851 C29.2114181,34.3593578 27.2818951,35.4833865 26.779,37.367 C26.5036812,38.259727 26.5966867,39.2254731 27.0373124,40.0492515 C27.4779381,40.87303 28.2296111,41.4864655 29.125,41.753 Z" fill="#F4F6F8" id="Path"/><path d="M27.005,39.968 C27.42167,40.8418634 28.1963093,41.4925021 29.129,41.752 L32.618,42.731 C35.7818358,43.5800259 39.1325715,42.2954426 40.918,39.549 L41.084,39.312 C42.2182828,37.6114046 42.6564244,35.5402548 42.308,33.526 C41.8243326,33.9861043 41.2891159,34.3887752 40.713,34.726 C40.5228384,35.80228 40.1096581,36.8268853 39.5,37.734 L39.335,37.97 C37.5491554,40.7159283 34.1988014,42.0003652 31.035,41.152 L27.546,40.173 C27.3598176,40.1212309 27.1787365,40.0526142 27.005,39.968 Z" fill="#E4E8EB" id="Path"/><path d="M25.715,41.753 L22.223,42.732 C19.0596098,43.5769388 15.7114056,42.2937295 13.923,39.551 L13.761,39.314 C12.6259064,37.6129604 12.1860643,35.5415153 12.532,33.526 C13.4502,34.4127595 14.5647544,35.0702541 15.785,35.445 C16.9876675,35.81938 18.2643208,35.8901525 19.501,35.651 L23.742,34.851 C25.6285819,34.3593578 27.5581049,35.4833865 28.061,37.367 C28.3363188,38.259727 28.2433133,39.2254731 27.8026876,40.0492515 C27.3620619,40.87303 26.6103889,41.4864655 25.715,41.753 Z" fill="#F4F6F8" id="Path"/><path d="M27.838,39.968 C27.42133,40.8418634 26.6466907,41.4925021 25.714,41.752 L22.225,42.731 C19.0611986,43.5793652 15.7108446,42.2949283 13.925,39.549 L13.76,39.312 C12.6257172,37.6114046 12.1875756,35.5402548 12.536,33.526 C13.01947,33.9863374 13.5547149,34.3890294 14.131,34.726 C14.3196417,35.8018947 14.7311085,36.8264742 15.339,37.734 L15.504,37.97 C17.2898446,40.7159283 20.6401986,42.0003652 23.804,41.152 L27.293,40.173 C27.4805485,40.1214616 27.6629783,40.0528412 27.838,39.968 Z" fill="#E4E8EB" id="Path"/><path d="M48.518,34.368 L50.774,34.368 C50.9737378,34.3683547 51.15983,34.4694053 51.2688974,34.6367361 C51.3779649,34.804067 51.3953004,35.0151144 51.315,35.198 C50.8274162,36.2350506 50.5614225,37.3623736 50.534,38.508 C50.5614009,39.65395 50.8273923,40.7816038 51.315,41.819 C51.3958573,42.0018652 51.3787726,42.2132138 51.2695927,42.3807171 C51.1604129,42.5482203 50.9739439,42.649163 50.774,42.649 L48.518,42.649 C48.3005277,42.6473058 48.1015571,42.5263102 48,42.334 C46.6533778,39.9614269 46.6533778,37.0555731 48,34.683 C48.1015571,34.4906898 48.3005277,34.3696942 48.518,34.368 Z" fill="#3B7ADA" id="Path"/><path d="M45.221,15.465 L46.245,13.455 C46.3160166,13.3138683 46.4405852,13.2070472 46.5908962,13.158384 C46.7412072,13.1097208 46.9047449,13.1232676 47.045,13.196 C47.1182349,13.233744 47.1829116,13.2861662 47.235,13.35 C47.9392554,14.2561519 48.8247803,15.0054422 49.835,15.55 C50.8669447,16.0454654 51.9908628,16.3203144 53.135,16.357 C53.3349915,16.3677744 53.5159181,16.4791028 53.6156768,16.6527717 C53.7154355,16.8264407 53.7204503,17.038816 53.629,17.217 L52.6,19.224 C52.500952,19.4197254 52.3013423,19.5441925 52.082,19.547 C49.3568817,19.6693917 46.767998,18.3504548 45.265,16.074 C45.138484,15.8948844 45.1215457,15.6604419 45.221,15.465 Z" fill="#C20016" id="Rectangle-Copy-6"/><path d="M0.533,16.333 L1.557,14.323 C1.64805317,14.1452839 1.82256206,14.0254452 2.02112111,14.004279 C2.21968017,13.9831128 2.4155299,14.0634716 2.542,14.218 C3.24597829,15.1244177 4.13156404,15.8737595 5.142,16.418 C6.17386947,16.9138111 7.29779095,17.1890016 8.442,17.226 C8.59864806,17.2345169 8.74548245,17.3049664 8.85014914,17.4218255 C8.95481582,17.5386845 9.00872568,17.6923634 9,17.849 C8.99540443,17.9311543 8.97396012,18.0114854 8.937,18.085 L7.912,20.095 C7.81226722,20.2900978 7.61308008,20.4143013 7.394,20.418 C6.05582077,20.4608265 4.72769555,20.173358 3.527,19.581 C2.34162562,18.9581835 1.32831988,18.0523913 0.577,16.944 C0.449688794,16.7644212 0.432733038,16.5289674 0.533,16.333 Z" fill="#C20016" id="Rectangle-Copy-6-2"/><path d="M4.006,52.754 L5.03,50.745 C5.10122004,50.6040642 5.22579435,50.4974227 5.37602608,50.4487852 C5.5262578,50.4001477 5.68969487,50.4135455 5.83,50.486 C5.90314216,50.5234512 5.9678119,50.5755274 6.02,50.639 C6.72436177,51.5450499 7.60986332,52.2943204 8.62,52.839 C9.65211312,53.3339947 10.7759306,53.6088192 11.92,53.646 C12.2463797,53.6642682 12.4961806,53.9436154 12.478,54.27 C12.4733902,54.3519559 12.4515843,54.4320244 12.414,54.505 L11.39,56.515 C11.290952,56.7107254 11.0913423,56.8351925 10.872,56.838 C9.53196787,56.882338 8.20178168,56.5944517 7,56 C5.81469299,55.3775333 4.80138247,54.4720803 4.05,53.364 C3.92502705,53.1839626 3.90815894,52.9501092 4.006,52.754 Z" fill="#FDD458" id="Rectangle-Copy-6-3"/><path d="M31.25,11.8 L30.666,9.62 C30.5820743,9.30440884 30.7695519,8.98046184 31.085,8.896 C31.1641199,8.87422512 31.2470086,8.86979075 31.328,8.883 C32.4559626,9.08637753 33.6139403,9.05231936 34.728,8.783 C35.829283,8.46079157 36.8511092,7.91207094 37.728,7.172 C37.8839105,7.046982 38.0923721,7.00906283 38.2823205,7.0711691 C38.4722689,7.13327537 38.6180623,7.28702316 38.67,7.48 L39.253,9.659 C39.3098214,9.87056037 39.2447516,10.0961868 39.084,10.245 C38.1191731,11.1732358 36.9398666,11.8485975 35.651,12.211 C34.3533388,12.5416075 32.9941304,12.5467599 31.694,12.226 C31.478032,12.1781084 31.3067834,12.0138023 31.25,11.8 Z" fill="#F0951C" id="Rectangle-Copy-5"/><path d="M18.382,9.319 C17.3787584,10.2057256 16.1720179,10.8309085 14.869,11.139 C13.5591336,11.4158461 12.2011196,11.3643151 10.916,10.989 C10.7043153,10.9318363 10.5417918,10.7619954 10.494,10.548 L10,8.347 C9.95638275,8.15185069 10.0142292,7.9478708 10.1537984,7.80467114 C10.2933677,7.66147148 10.4957952,7.59840727 10.692,7.637 C11.8103239,7.88600173 12.9682587,7.89928393 14.092,7.676 C15.2042451,7.39938906 16.2464834,6.89359697 17.152,6.191 C17.313007,6.07228063 17.5230797,6.04290309 17.7104776,6.11289994 C17.8978755,6.18289679 18.0372485,6.34279924 18.081,6.538 L18.573,8.738 C18.6218159,8.95209257 18.5483279,9.17563457 18.382,9.319 Z" fill="#1ACD62" id="Rectangle-Copy-5-2"/><path d="M3.219,34.015 L4.972,32.6 C5.22611956,32.3947823 5.59843444,32.4341617 5.804,32.688 C5.85590164,32.7516879 5.89373113,32.8256428 5.915,32.905 C6.18885373,34.01795 6.6919058,35.0615191 7.392,35.969 C8.1344656,36.8419012 9.05058114,37.5506136 10.082,38.05 C10.2598734,38.1415369 10.379368,38.3168409 10.399553,38.5158648 C10.419738,38.7148888 10.3378732,38.9106146 10.182,39.036 L8.429,40.456 C8.25956327,40.5919711 8.02926254,40.6242133 7.829,40.54 C6.58738083,40.035315 5.4898112,39.2314612 4.634,38.2 C3.80412486,37.1489667 3.24662362,35.9092736 3.011,34.591 C2.96815678,34.3752842 3.04821891,34.1535737 3.219,34.015 Z" fill="#AB00D7" id="Path"/><path d="M43.9,59.713 L42.739,57.78 C42.6360587,57.6085323 42.6266506,57.3966812 42.7139874,57.2167635 C42.8013241,57.0368458 42.9735972,56.9131874 43.172,56.888 C45.4946223,56.7069047 47.5967562,55.4437722 48.847,53.478 C49.035624,53.211 49.4049626,53.147429 49.672,53.336 C49.738913,53.3833693 49.7954086,53.4439488 49.838,53.514 L51,55.448 C51.1134457,55.6358689 51.1134457,55.8711311 51,56.059 C49.659653,58.4359629 47.1679982,59.9328549 44.44,60 C44.2206484,60.0121335 44.0126677,59.9015956 43.9,59.713 Z" fill="#6ECD1A" id="Rectangle-Copy-2"/><path d="M39,31.655 C38.8744434,31.6549885 38.7499874,31.6315894 38.633,31.586 L38.42,31.5 C36.9265156,30.839618 35.2344666,30.787246 33.703,31.354 C33.3707255,31.494645 32.9884515,31.4453866 32.702685,31.2251031 C32.4169184,31.0048196 32.2719789,30.6476749 32.3234148,30.290545 C32.3748506,29.9334152 32.6146846,29.6316878 32.951,29.501 C34.9567475,28.7376588 37.181203,28.7871709 39.151,29.639 L39.365,29.723 C39.8139068,29.8975769 40.0745828,30.367357 39.985168,30.8406428 C39.8957533,31.3139285 39.4816564,31.6562283 39,31.655 Z" fill="#424852" id="Path"/><path d="M17.309,31.453 C16.8336046,31.4535149 16.4235604,31.1192696 16.3282294,30.6535304 C16.2328984,30.1877912 16.4786357,29.7193156 16.916,29.533 L17.131,29.441 C19.091162,28.5102981 21.34505,28.414672 23.377,29.176 C23.7080066,29.3106891 23.9420135,29.6117369 23.9908725,29.9657416 C24.0397316,30.3197462 23.89602,30.6729261 23.6138725,30.8922416 C23.3317251,31.1115571 22.9540066,31.1636891 22.623,31.029 C21.0843879,30.4736421 19.3865225,30.5645412 17.916,31.281 L17.701,31.373 C17.5771479,31.4260935 17.4437522,31.4533171 17.309,31.453 Z" fill="#424852" id="Path"/><path d="M44,28.008 C43.890076,28.0081307 43.7809039,27.989879 43.677,27.954 L34.869,24.946 C34.523905,24.8359435 34.2653029,24.5478763 34.1929769,24.192951 C34.1206509,23.8380258 34.2459096,23.4717362 34.520421,23.2354176 C34.7949323,22.9990989 35.1757756,22.9297005 35.516,23.054 L44.323,26.062 C44.7852641,26.2204033 45.065351,26.6896863 44.9853387,27.171742 C44.9053263,27.6537977 44.4886505,28.0074309 44,28.008 Z" fill="#E4E8EB" id="Path"/><path d="M13,28.008 C12.5113495,28.0074309 12.0946737,27.6537977 12.0146613,27.171742 C11.934649,26.6896863 12.2147359,26.2204033 12.677,26.062 L21.484,23.054 C21.8242244,22.9297005 22.2050677,22.9990989 22.479579,23.2354176 C22.7540904,23.4717362 22.8793491,23.8380258 22.8070231,24.192951 C22.7346971,24.5478763 22.476095,24.8359435 22.131,24.946 L13.323,27.954 C13.2189747,27.9893993 13.1098828,28.0076376 13,28.008 Z" fill="#E4E8EB" id="Path"/></g></g></svg>