<?xml version="1.0" encoding="UTF-8"?>
<svg id="Layer_1" xmlns="http://www.w3.org/2000/svg" viewBox="0 0 738.65 245.06">
  <defs>
    <style>
      .cls-1, .cls-2, .cls-3, .cls-4, .cls-5, .cls-6, .cls-7, .cls-8, .cls-9, .cls-10 {
        fill-rule: evenodd;
      }

      .cls-1, .cls-11 {
        fill: #eb5463;
      }

      .cls-2 {
        fill: #d1d8db;
      }

      .cls-3 {
        fill: #cad0d7;
      }

      .cls-4, .cls-12 {
        fill: #e4e8eb;
      }

      .cls-5 {
        fill: #f5b945;
      }

      .cls-6 {
        fill: #f77286;
      }

      .cls-11 {
        font-family: ChristmasRegular, Christmas;
        font-size: 160.39px;
      }

      .cls-7 {
        fill: #f4f6f8;
      }

      .cls-8 {
        fill: #c93a4c;
      }

      .cls-13 {
        fill: #424852;
      }

      .cls-9 {
        fill: #fdcd56;
      }

      .cls-10 {
        fill: #d94452;
      }
    </style>
  </defs>
  <g id="Page-1">
    <g id="_x30_02---santa_x2C_-christmas_x2C_-emoji_x2C_-love">
      <path id="Path" class="cls-10" d="M112.86,0c46.62-.05,85.79,35.03,90.85,81.37,1.66,14.74,2.55,29.55,2.66,44.38h-22.57L112.86,0Z"/>
      <path id="Path-2" data-name="Path" class="cls-8" d="M193.69,109.87c-.16,0-.33,0-.49.04-.59.08-1.18.21-1.76.37-.6.13-1.18.29-1.76.49-.6.17-1.19.39-1.76.65-.12.04-.2.08-.33.12-2.92-7.65-6.89-14.85-11.8-21.4,4.62-.82,7.99-4.82,8.01-9.52v-12.91c0-2.57-1.02-5.03-2.83-6.85s-4.28-2.84-6.85-2.83h-3.43C168.33,27.17,143.84,2.63,112.98.2l-.12-.2h.41c1.31,0,2.61.04,3.96.08,2.45.12,4.9.37,7.35.69,28.74,4.55,50.59,28.25,52.81,57.26h3.47c2.57,0,5.03,1.02,6.85,2.83s2.84,4.28,2.83,6.85v12.91c0,4.69-3.38,8.69-8.01,9.48,4.55,6.08,8.3,12.73,11.15,19.77Z"/>
      <circle id="Oval" class="cls-12" cx="196.7" cy="132.2" r="22.57"/>
      <path id="Path-3" data-name="Path" class="cls-2" d="M202.3,144.1c0,3.37-.19,6.74-.55,10.09-1.66.39-3.36.58-5.06.58-1.21,0-2.42-.1-3.61-.32.39-3.44.58-6.89.58-10.35.02-11.14-2.03-22.18-6.06-32.57,2.51-1.11,5.2-1.73,7.93-1.84,4.48,10.92,6.78,22.61,6.77,34.41Z"/>
      <path id="Path-4" data-name="Path" class="cls-9" d="M193.65,144.11c.03,23.99-9.48,47-26.45,63.95,0,.02-.01.03-.03.03-24.55,24.54-60.97,32.87-93.74,21.44-32.77-11.43-56.12-40.59-60.1-75.07-3.97-34.48,12.13-68.19,41.44-86.78l.03-.03c27.87-17.63,63.13-18.7,92.02-2.79,28.89,15.91,46.84,46.27,46.84,79.26h-.02Z"/>
      <path id="Path-5" data-name="Path" class="cls-5" d="M167.17,208.09c-24.55,24.54-60.97,32.87-93.74,21.44-32.77-11.43-56.12-40.59-60.1-75.07-3.97-34.48,12.13-68.19,41.44-86.78-32.56,32.62-35.4,84.49-6.6,120.47,28.8,35.98,80.04,44.56,118.99,19.94Z"/>
      <path id="Path-6" data-name="Path" class="cls-1" d="M102.05,0h5.95c16.68,0,32.68,6.62,44.48,18.42,11.8,11.8,18.42,27.8,18.42,44.48v17.73H35.47v-14.06c0-17.66,7.01-34.59,19.5-47.08C67.46,7.01,84.39,0,102.05,0Z"/>
      <path id="Path-7" data-name="Path" class="cls-10" d="M113.09.22c-34.7,2.63-61.5,31.55-61.49,66.35v14.03h-16.12v-14.03c0-17.66,7.02-34.59,19.5-47.08C67.46,7.01,84.4,0,102.06,0h5.96c1.71,0,3.42.07,5.06.22Z"/>
      <rect id="Rectangle" class="cls-12" x="22.57" y="58.04" width="161.22" height="32.25" rx="9.67" ry="9.67"/>
      <path id="Path-8" data-name="Path" class="cls-3" d="M41.92,90.28h-9.67c-2.57,0-5.03-1.01-6.85-2.83s-2.83-4.28-2.83-6.84v-12.9c0-2.57,1.02-5.03,2.83-6.84,1.82-1.81,4.28-2.83,6.85-2.83h9.67c-2.57,0-5.03,1.01-6.84,2.83-1.81,1.81-2.83,4.28-2.83,6.84v12.9c0,2.57,1.01,5.03,2.83,6.84,1.81,1.81,4.28,2.83,6.84,2.83Z"/>
      <path id="Path-9" data-name="Path" class="cls-7" d="M206.37,166.06c0-12.37-9.32-22.75-21.62-24.05-12.3-1.31-23.6,6.87-26.2,18.97-6.49,2.8-12.38,6.83-17.34,11.86-1.98,1.98-3.81,4.1-5.49,6.34-7.29,7.29-20.19,7.84-32.53,7.84s-25.24-.55-32.53-7.84c-1.68-2.24-3.52-4.36-5.49-6.34-4.96-5.04-10.85-9.07-17.34-11.86-2.17-10.08-10.5-17.67-20.73-18.91-10.24-1.24-20.13,4.15-24.64,13.42s-2.65,20.38,4.64,27.68c-2.48,10.3,2.75,24.59,14.21,36.04,11.64,11.65,26.23,16.85,36.56,14.07,8.74,7.02,25.77,11.79,45.34,11.79s36.59-4.77,45.34-11.79c10.33,2.79,24.91-2.42,36.56-14.07,11.44-11.44,16.68-25.73,14.21-36.04,4.54-4.53,7.09-10.68,7.08-17.1Z"/>
      <path id="Path-10" data-name="Path" class="cls-4" d="M191.54,206.62c2.39-2.38,4.57-4.96,6.51-7.72-2.69,7.68-7.13,14.63-12.96,20.31-11.64,11.64-26.25,16.86-36.57,14.06-8.74,7.01-25.76,11.78-45.34,11.78s-36.6-4.77-45.34-11.8c-10.32,2.81-24.91-2.42-36.56-14.06-11.44-11.44-16.67-25.73-14.19-36.05-9.36-9.32-9.48-24.44-.26-33.9-.26,1.39-.39,2.81-.39,4.22-.01,6.42,2.54,12.57,7.09,17.09-2.48,10.32,2.74,24.6,14.18,36.05,11.64,11.64,26.25,16.86,36.57,14.06,8.74,7.03,25.76,11.8,45.34,11.8s36.6-4.77,45.34-11.8c10.32,2.82,24.91-2.41,36.57-14.05Z"/>
      <path id="Path-11" data-name="Path" class="cls-6" d="M113.72,8.99s25.32,12.09,32.07,23.69c-1.23-6.18-4.19-11.88-8.52-16.45-7.62-8.7-23.55-7.24-23.55-7.24Z"/>
      <path id="Path-12" data-name="Path" class="cls-1" d="M89.39,118.35l-20.45,20.45-20.45-20.45c-4.64-4.65-4.64-12.19,0-16.84,4.66-4.62,12.18-4.62,16.84,0l3.61,3.61,3.61-3.61c4.65-4.64,12.19-4.64,16.84,0,4.62,4.66,4.62,12.18,0,16.84Z"/>
      <path id="Path-13" data-name="Path" class="cls-10" d="M73.23,134.53l-4.29,4.28-20.45-20.48c-3.4-3.4-4.42-8.51-2.58-12.95,1.84-4.44,6.18-7.34,10.99-7.33.26,0,.52,0,.78.03-.83.49-1.6,1.09-2.28,1.77-4.63,4.66-4.63,12.18,0,16.84l17.83,17.83Z"/>
      <path id="Path-14" data-name="Path" class="cls-1" d="M158.12,118.35l-20.45,20.45-20.45-20.45c-4.64-4.65-4.64-12.19,0-16.84,4.66-4.62,12.18-4.62,16.84,0l3.61,3.61,3.61-3.61c4.65-4.64,12.19-4.64,16.84,0,4.62,4.66,4.62,12.18,0,16.84Z"/>
      <path id="Path-15" data-name="Path" class="cls-10" d="M141.95,134.53l-4.29,4.28-20.45-20.48c-3.4-3.4-4.42-8.51-2.58-12.95,1.84-4.44,6.18-7.34,10.99-7.33.26,0,.52,0,.78.03-.83.49-1.6,1.09-2.28,1.77-4.63,4.66-4.63,12.18,0,16.84l17.83,17.83Z"/>
      <ellipse id="Oval-2" data-name="Oval" class="cls-13" cx="103.19" cy="171.54" rx="8.17" ry="12.25"/>
      <path id="Path-16" data-name="Path" class="cls-7" d="M110.15,170.53l14.26,4c12.92,3.45,26.6-1.79,33.9-12.99l.67-.97c4.63-6.95,6.43-15.41,5.02-23.64-3.75,3.62-8.3,6.31-13.29,7.84-4.91,1.53-10.13,1.82-15.18.84l-17.32-3.27c-7.71-2.01-15.59,2.58-17.64,10.28-1.12,3.65-.74,7.59,1.06,10.96,1.8,3.36,4.87,5.87,8.53,6.96Z"/>
      <path id="Path-17" data-name="Path" class="cls-4" d="M101.49,163.24c1.7,3.57,4.87,6.23,8.68,7.29l14.25,4c12.92,3.47,26.61-1.78,33.9-13l.68-.97c4.63-6.95,6.42-15.4,5-23.63-1.98,1.88-4.16,3.52-6.51,4.9-.78,4.4-2.46,8.58-4.95,12.29l-.67.96c-7.29,11.22-20.98,16.46-33.9,13l-14.25-4c-.76-.21-1.5-.49-2.21-.84Z"/>
      <path id="Path-18" data-name="Path" class="cls-7" d="M96.22,170.53l-14.26,4c-12.92,3.45-26.6-1.79-33.9-12.99l-.66-.97c-4.64-6.95-6.43-15.41-5.02-23.64,3.75,3.62,8.3,6.31,13.29,7.84,4.91,1.53,10.13,1.82,15.18.84l17.32-3.27c7.71-2.01,15.59,2.58,17.64,10.28,1.12,3.65.74,7.59-1.06,10.96-1.8,3.36-4.87,5.87-8.53,6.96Z"/>
      <path id="Path-19" data-name="Path" class="cls-4" d="M104.89,163.24c-1.7,3.57-4.87,6.23-8.68,7.29l-14.25,4c-12.92,3.46-26.61-1.78-33.9-13l-.67-.97c-4.63-6.95-6.42-15.4-5-23.63,1.97,1.88,4.16,3.52,6.51,4.9.77,4.39,2.45,8.58,4.93,12.29l.67.96c7.29,11.22,20.98,16.46,33.9,13l14.25-4c.77-.21,1.51-.49,2.23-.84Z"/>
    </g>
  </g>
  <text class="cls-11" transform="translate(261.28 153.88)"><tspan x="0" y="0">SlaySanta</tspan></text>
</svg>