<?xml version="1.0" encoding="UTF-8"?>
<svg xmlns="http://www.w3.org/2000/svg" version="1.1" viewBox="0 0 750 250">
  <defs>
    <style>
      .cls-1, .cls-2, .cls-3, .cls-4, .cls-5, .cls-6, .cls-7, .cls-8, .cls-9, .cls-10 {
        fill-rule: evenodd;
      }

      .cls-1, .cls-11 {
        fill: #eb5463;
      }

      .cls-2 {
        fill: #d1d8db;
      }

      .cls-3 {
        fill: #cad0d7;
      }

      .cls-4, .cls-12 {
        fill: #e4e8eb;
      }

      .cls-5 {
        fill: #f5b945;
      }

      .cls-6 {
        fill: #f77286;
      }

      .cls-11 {
        font-family: ChristmasRegular, Christmas;
        font-size: 160.4px;
      }

      .cls-7 {
        fill: #f4f6f8;
      }

      .cls-8 {
        fill: #c93a4c;
      }

      .cls-13 {
        fill: #424852;
      }

      .cls-9 {
        fill: #fdcd56;
      }

      .cls-10 {
        fill: #d94452;
      }
    </style>
  </defs>
  <!-- Generator: Adobe Illustrator 28.6.0, SVG Export Plug-In . SVG Version: 1.2.0 Build 709)  -->
  <g>
    <g id="Layer_1">
      <g id="Page-1">
        <g id="_x30_02---santa_x2C_-christmas_x2C_-emoji_x2C_-love">
          <path id="Path" class="cls-10" d="M123.4,2.5c46.6,0,85.8,35,90.9,81.4,1.7,14.7,2.5,29.6,2.7,44.4h-22.6L123.4,2.5Z"/>
          <path id="Path-2" data-name="Path" class="cls-8" d="M204.2,112.3c-.2,0-.3,0-.5,0-.6,0-1.2.2-1.8.4-.6.1-1.2.3-1.8.5-.6.2-1.2.4-1.8.7-.1,0-.2,0-.3.1-2.9-7.6-6.9-14.9-11.8-21.4,4.6-.8,8-4.8,8-9.5v-12.9c0-2.6-1-5-2.8-6.8s-4.3-2.8-6.8-2.8h-3.4c-2.4-30.9-26.9-55.4-57.7-57.8v-.2c-.1,0,.3,0,.3,0,1.3,0,2.6,0,4,0,2.5.1,4.9.4,7.4.7,28.7,4.6,50.6,28.2,52.8,57.3h3.5c2.6,0,5,1,6.8,2.8s2.8,4.3,2.8,6.8v12.9c0,4.7-3.4,8.7-8,9.5,4.5,6.1,8.3,12.7,11.2,19.8Z"/>
          <circle id="Oval" class="cls-12" cx="207.2" cy="134.7" r="22.6"/>
          <path id="Path-3" data-name="Path" class="cls-2" d="M212.8,146.6c0,3.4-.2,6.7-.5,10.1-1.7.4-3.4.6-5.1.6-1.2,0-2.4-.1-3.6-.3.4-3.4.6-6.9.6-10.3,0-11.1-2-22.2-6.1-32.6,2.5-1.1,5.2-1.7,7.9-1.8,4.5,10.9,6.8,22.6,6.8,34.4Z"/>
          <path id="Path-4" data-name="Path" class="cls-9" d="M204.2,146.6c0,24-9.5,47-26.5,63.9,0,0,0,0,0,0-24.5,24.5-61,32.9-93.7,21.4-32.8-11.4-56.1-40.6-60.1-75.1-4-34.5,12.1-68.2,41.4-86.8h0c27.9-17.7,63.1-18.7,92-2.8,28.9,15.9,46.8,46.3,46.8,79.3h0Z"/>
          <path id="Path-5" data-name="Path" class="cls-5" d="M177.7,210.6c-24.5,24.5-61,32.9-93.7,21.4-32.8-11.4-56.1-40.6-60.1-75.1-4-34.5,12.1-68.2,41.4-86.8-32.6,32.6-35.4,84.5-6.6,120.5,28.8,36,80,44.6,119,19.9Z"/>
          <path id="Path-6" data-name="Path" class="cls-1" d="M112.6,2.5h6c16.7,0,32.7,6.6,44.5,18.4,11.8,11.8,18.4,27.8,18.4,44.5v17.7H46v-14.1c0-17.7,7-34.6,19.5-47.1,12.5-12.5,29.4-19.5,47.1-19.5Z"/>
          <path id="Path-7" data-name="Path" class="cls-10" d="M123.6,2.7c-34.7,2.6-61.5,31.6-61.5,66.3v14h-16.1v-14c0-17.7,7-34.6,19.5-47.1,12.5-12.5,29.4-19.5,47.1-19.5h6c1.7,0,3.4,0,5.1.2Z"/>
          <rect id="Rectangle" class="cls-12" x="33.1" y="60.5" width="161.2" height="32.2" rx="9.7" ry="9.7"/>
          <path id="Path-8" data-name="Path" class="cls-3" d="M52.4,92.8h-9.7c-2.6,0-5-1-6.8-2.8s-2.8-4.3-2.8-6.8v-12.9c0-2.6,1-5,2.8-6.8,1.8-1.8,4.3-2.8,6.8-2.8h9.7c-2.6,0-5,1-6.8,2.8-1.8,1.8-2.8,4.3-2.8,6.8v12.9c0,2.6,1,5,2.8,6.8,1.8,1.8,4.3,2.8,6.8,2.8Z"/>
          <path id="Path-9" data-name="Path" class="cls-7" d="M216.9,168.5c0-12.4-9.3-22.7-21.6-24.1-12.3-1.3-23.6,6.9-26.2,19-6.5,2.8-12.4,6.8-17.3,11.9-2,2-3.8,4.1-5.5,6.3-7.3,7.3-20.2,7.8-32.5,7.8s-25.2-.6-32.5-7.8c-1.7-2.2-3.5-4.4-5.5-6.3-5-5-10.8-9.1-17.3-11.9-2.2-10.1-10.5-17.7-20.7-18.9-10.2-1.2-20.1,4.2-24.6,13.4s-2.6,20.4,4.6,27.7c-2.5,10.3,2.8,24.6,14.2,36,11.6,11.6,26.2,16.9,36.6,14.1,8.7,7,25.8,11.8,45.3,11.8s36.6-4.8,45.3-11.8c10.3,2.8,24.9-2.4,36.6-14.1,11.4-11.4,16.7-25.7,14.2-36,4.5-4.5,7.1-10.7,7.1-17.1Z"/>
          <path id="Path-10" data-name="Path" class="cls-4" d="M202,209.1c2.4-2.4,4.6-5,6.5-7.7-2.7,7.7-7.1,14.6-13,20.3-11.6,11.6-26.2,16.9-36.6,14.1-8.7,7-25.8,11.8-45.3,11.8s-36.6-4.8-45.3-11.8c-10.3,2.8-24.9-2.4-36.6-14.1-11.4-11.4-16.7-25.7-14.2-36-9.4-9.3-9.5-24.4-.3-33.9-.3,1.4-.4,2.8-.4,4.2,0,6.4,2.5,12.6,7.1,17.1-2.5,10.3,2.7,24.6,14.2,36,11.6,11.6,26.2,16.9,36.6,14.1,8.7,7,25.8,11.8,45.3,11.8s36.6-4.8,45.3-11.8c10.3,2.8,24.9-2.4,36.6-14Z"/>
          <path id="Path-11" data-name="Path" class="cls-6" d="M124.2,11.5s25.3,12.1,32.1,23.7c-1.2-6.2-4.2-11.9-8.5-16.5-7.6-8.7-23.6-7.2-23.6-7.2Z"/>
          <path id="Path-12" data-name="Path" class="cls-1" d="M99.9,120.8l-20.5,20.5-20.5-20.5c-4.6-4.7-4.6-12.2,0-16.8,4.7-4.6,12.2-4.6,16.8,0l3.6,3.6,3.6-3.6c4.7-4.6,12.2-4.6,16.8,0,4.6,4.7,4.6,12.2,0,16.8Z"/>
          <path id="Path-13" data-name="Path" class="cls-10" d="M83.7,137l-4.3,4.3-20.5-20.5c-3.4-3.4-4.4-8.5-2.6-13,1.8-4.4,6.2-7.3,11-7.3.3,0,.5,0,.8,0-.8.5-1.6,1.1-2.3,1.8-4.6,4.7-4.6,12.2,0,16.8l17.8,17.8Z"/>
          <path id="Path-14" data-name="Path" class="cls-1" d="M168.6,120.8l-20.5,20.5-20.5-20.5c-4.6-4.7-4.6-12.2,0-16.8,4.7-4.6,12.2-4.6,16.8,0l3.6,3.6,3.6-3.6c4.7-4.6,12.2-4.6,16.8,0,4.6,4.7,4.6,12.2,0,16.8Z"/>
          <path id="Path-15" data-name="Path" class="cls-10" d="M152.5,137l-4.3,4.3-20.5-20.5c-3.4-3.4-4.4-8.5-2.6-13,1.8-4.4,6.2-7.3,11-7.3.3,0,.5,0,.8,0-.8.5-1.6,1.1-2.3,1.8-4.6,4.7-4.6,12.2,0,16.8l17.8,17.8Z"/>
          <ellipse id="Oval-2" data-name="Oval" class="cls-13" cx="113.7" cy="174" rx="8.2" ry="12.3"/>
          <path id="Path-16" data-name="Path" class="cls-7" d="M120.6,173l14.3,4c12.9,3.5,26.6-1.8,33.9-13l.7-1c4.6-6.9,6.4-15.4,5-23.6-3.8,3.6-8.3,6.3-13.3,7.8-4.9,1.5-10.1,1.8-15.2.8l-17.3-3.3c-7.7-2-15.6,2.6-17.6,10.3-1.1,3.6-.7,7.6,1.1,11,1.8,3.4,4.9,5.9,8.5,7Z"/>
          <path id="Path-17" data-name="Path" class="cls-4" d="M112,165.7c1.7,3.6,4.9,6.2,8.7,7.3l14.3,4c12.9,3.5,26.6-1.8,33.9-13l.7-1c4.6-6.9,6.4-15.4,5-23.6-2,1.9-4.2,3.5-6.5,4.9-.8,4.4-2.5,8.6-5,12.3l-.7,1c-7.3,11.2-21,16.5-33.9,13l-14.3-4c-.8-.2-1.5-.5-2.2-.8Z"/>
          <path id="Path-18" data-name="Path" class="cls-7" d="M106.7,173l-14.3,4c-12.9,3.5-26.6-1.8-33.9-13l-.7-1c-4.6-6.9-6.4-15.4-5-23.6,3.8,3.6,8.3,6.3,13.3,7.8,4.9,1.5,10.1,1.8,15.2.8l17.3-3.3c7.7-2,15.6,2.6,17.6,10.3,1.1,3.6.7,7.6-1.1,11-1.8,3.4-4.9,5.9-8.5,7Z"/>
          <path id="Path-19" data-name="Path" class="cls-4" d="M115.4,165.7c-1.7,3.6-4.9,6.2-8.7,7.3l-14.3,4c-12.9,3.5-26.6-1.8-33.9-13l-.7-1c-4.6-6.9-6.4-15.4-5-23.6,2,1.9,4.2,3.5,6.5,4.9.8,4.4,2.5,8.6,4.9,12.3l.7,1c7.3,11.2,21,16.5,33.9,13l14.3-4c.8-.2,1.5-.5,2.2-.8Z"/>
        </g>
      </g>
      <text class="cls-11" transform="translate(271.8 156.4)"><tspan x="0" y="0">SantaSlay</tspan></text>
    </g>
  </g>
</svg>